<?xml version="1.0" encoding="utf-8"?>
<!-- Generator: Adobe Illustrator 19.2.1, SVG Export Plug-In . SVG Version: 6.00 Build 0)  -->
<svg version="1.1" id="Layer_1" xmlns="http://www.w3.org/2000/svg" xmlns:xlink="http://www.w3.org/1999/xlink" x="0px" y="0px"
	 viewBox="0 0 212.1 46.5" style="enable-background:new 0 0 212.1 46.5;" xml:space="preserve">
<style type="text/css">
	.st0{fill:none;}
	.st1{enable-background:new    ;}
	.st2{fill:#0E9A48;}
	.st3{display:none;fill:none;}
</style>
<symbol  id="New_Symbol" viewBox="-267 -53.1 534 106.1">
	<rect x="-266.7" y="-53.1" class="st0" width="533.5" height="105"/>
	<g class="st1">
		<path class="st2" d="M-68,44.9c0.1-0.5,0.2-0.9,0.2-1.1c0-0.2,0.1-0.5,0.1-0.8c0-1-0.2-1.9-0.7-2.8c-0.4-0.9-1-1.5-1.8-1.8
			c-0.6,0.8-1.3,1.5-2.2,2.1c-0.9,0.6-1.8,1.1-2.9,1.4c-1,0.4-2.1,0.7-3.2,0.8c-1.1,0.2-2.2,0.3-3.2,0.3c-1.1,0-2-0.1-2.9-0.2
			c-0.9-0.2-1.7-0.4-2.4-0.7c-0.7-0.3-1.3-0.6-1.7-1.1c-0.4-0.4-0.6-0.9-0.6-1.4c0.1-0.7,0.5-1.3,1.2-2s1.6-1.3,2.7-2
			c1-0.6,2.2-1.3,3.5-1.9c1.3-0.6,2.5-1.2,3.8-1.8c1.5-0.7,2.8-1.4,4-2c1.1-0.6,2-1.3,2.7-2c0.7-0.7,1.3-1.6,1.6-2.5
			c0.4-0.9,0.5-2.1,0.5-3.4c0-1.5-0.3-3-0.8-4.3c-0.5-1.3-1.3-2.5-2.2-3.5c-1-1-2.2-1.8-3.5-2.3c-1.4-0.6-2.9-0.8-4.6-0.8
			c-1.7,0-3.5,0.3-5.4,0.8c-2,0.5-3.8,1.2-5.5,2.1c-1.7,0.9-3.1,1.9-4.2,3.1s-1.7,2.4-1.7,3.7c0,0.6,0.2,1.4,0.5,2.3
			c0.3,0.9,1,1.9,1.9,2.9c0.1-0.9,0.6-2,1.5-3.2c0.9-1.2,2.2-2.4,4-3.4c1.6-1,3.4-1.7,5.1-2.1c1.8-0.4,3.4-0.7,4.9-0.7
			c1.7,0,3,0.2,4.1,0.6c1,0.4,1.9,0.9,2.5,1.5c0.6,0.6,1,1.2,1.3,1.8c0.2,0.6,0.4,1.1,0.4,1.4c0,0.6-0.3,1.2-0.8,1.7
			c-0.5,0.6-1.2,1.1-2.1,1.6c-0.9,0.5-1.9,1.1-3.1,1.6c-1.2,0.5-2.4,1.1-3.6,1.6c-1.9,0.8-3.5,1.6-4.9,2.4c-1.4,0.7-2.5,1.5-3.4,2.2
			c-0.9,0.8-1.5,1.6-1.9,2.4c-0.4,0.8-0.6,1.8-0.6,2.9c0,1.7,0.5,3.3,1.5,4.8c1,1.5,2.5,2.6,4.4,3.4c1,0.4,2,0.7,3.1,0.9
			c1.1,0.2,2.2,0.3,3.2,0.3c2,0,3.9-0.3,5.8-0.8C-71.8,46.4-69.9,45.7-68,44.9z"/>
		<path class="st2" d="M-50.4,32.7c0.3,0,0.7-0.1,1.1-0.2c0.4-0.1,0.8-0.2,1.1-0.4c0.3-0.2,0.6-0.3,0.8-0.5c0.2-0.2,0.3-0.3,0.3-0.5
			c-0.6-1.3-1.2-2.5-1.7-3.8c-0.5-1.3-0.9-2.5-1.3-3.7s-0.6-2.3-0.8-3.3c-0.2-1-0.3-1.9-0.3-2.7c0-0.8,0.1-1.5,0.3-2.1
			c0.2-0.6,0.5-1,0.9-1.2c-0.4-0.2-0.8-0.4-1.4-0.6c-0.6-0.2-1.1-0.2-1.5-0.2c-1.6,0-2.4,1.1-2.4,3.3c0,1.7,0.6,4.1,1.7,7
			c-0.6-1.4-1.3-2.7-2.1-3.9c-0.8-1.2-1.6-2.3-2.4-3.2s-1.6-1.7-2.5-2.3c-0.8-0.6-1.6-0.9-2.3-1.1c-1.1,0-2,0.5-2.7,1.5
			c-0.7,1-1,2.3-1,3.9c0,1.7,0.4,3.5,1.1,5.3c0.7,1.9,1.6,3.6,2.8,5.2c1.1,1.6,2.3,2.9,3.7,4c1.3,1.1,2.6,1.6,3.8,1.6
			c0.3-0.1,0.6-0.3,1-0.5c0.4-0.3,0.7-0.6,1.1-0.9c0.3-0.4,0.6-0.7,0.9-1.1c0.2-0.4,0.4-0.7,0.4-1c-1.2-0.2-2.4-0.8-3.7-1.8
			c-1.3-1-2.4-2.2-3.5-3.6s-1.9-2.9-2.5-4.5c-0.7-1.6-1-3.1-1-4.4c0-0.6,0.2-0.9,0.6-1.1c0.9,0.2,1.9,0.9,3,2.2s2.5,3.3,4.1,6.1
			c0.3,0.5,0.6,1.1,1,1.8c0.4,0.7,0.8,1.3,1.1,2.1c0.4,0.7,0.8,1.4,1.1,2.2C-51.1,31.3-50.7,32-50.4,32.7z"/>
		<path class="st2" d="M-42.8,30.5c0,0.5,0,1,0.1,1.5c0.1,0.5,0.2,0.9,0.5,1.2c0.2,0.3,0.6,0.6,1,0.8c0.4,0.2,1,0.3,1.7,0.3
			c0.4,0,0.9,0,1.4-0.1c0.5-0.1,0.9-0.3,1.1-0.5c-0.1-0.5-0.2-1-0.3-1.3c-0.1-0.4-0.1-0.8-0.2-1.3s-0.1-1-0.1-1.7
			c0-0.6-0.1-1.5-0.1-2.5c-0.1-2-0.2-3.9-0.3-5.5c-0.1-1.6-0.4-3.2-0.9-4.8c0-0.1,0-0.2,0.1-0.2c0.4,0.3,1,0.8,1.5,1.4
			c0.6,0.6,1.2,1.3,1.8,2.1c0.6,0.8,1.3,1.6,1.9,2.5c0.6,0.9,1.2,1.8,1.8,2.7c0.7,1.3,1.5,2.8,2.4,4.7c0.9,1.9,1.6,3.9,2.2,6.1
			c0.2,0,0.4,0,0.7-0.1c0.3-0.1,0.6-0.2,0.9-0.3c0.3-0.1,0.5-0.2,0.8-0.3c0.2-0.1,0.4-0.2,0.5-0.3c-0.1-1.3-0.4-2.6-0.9-4
			c-0.6-1.3-1.2-2.7-2-3.9c-0.8-1.3-1.6-2.4-2.5-3.6c-0.9-1.1-1.7-2.1-2.4-2.9c-1.4-1.7-2.9-3.2-4.3-4.5c-1.5-1.3-3.2-2.6-5.2-3.8
			c-0.8,0.3-1.4,0.7-1.8,1.2c-0.4,0.5-0.7,1-0.7,1.6c0,0.4,0.1,0.8,0.2,1.2c0.2,0.5,0.4,1.1,0.6,1.8c0.2,0.7,0.4,1.7,0.6,2.8
			c0.2,1.1,0.2,2.5,0.2,4.2c0,1,0,2-0.1,3C-42.8,29.1-42.8,29.9-42.8,30.5z"/>
		<path class="st2" d="M-19.8,12.9c-1.7,0.2-3.1,0.9-4.1,2.2c-1,1.3-1.5,3-1.5,5c0,1.2,0.2,2.4,0.5,3.7c0.4,1.3,0.9,2.5,1.5,3.8
			c0.7,1.2,1.4,2.4,2.3,3.4c0.9,1.1,1.9,2,2.9,2.8c1.6,1.2,3.2,1.8,4.6,1.8c1-0.5,1.9-1.6,2.8-3.2c0.1,0,0.3,0,0.4,0
			c0.1,0,0.3,0,0.4,0c1.6,0,2.4-1.4,2.4-4.2c0-1.9-0.3-3.7-0.9-5.4c-0.6-1.7-1.5-3.2-2.6-4.6c-1.1-1.4-2.4-2.5-3.9-3.5
			C-16.4,14-18,13.3-19.8,12.9z M-17.5,27.1c-0.5-0.7-1-1.4-1.4-2.2c-0.4-0.8-0.8-1.6-1.2-2.5c-0.3-0.8-0.6-1.6-0.8-2.4
			c-0.2-0.8-0.3-1.4-0.3-2c0-0.7,0.1-1.4,0.4-2.1c0.2-0.7,0.5-1,0.8-1.1c1.4,0.3,2.6,0.9,3.7,1.7s2.1,1.9,2.9,3.1
			c0.8,1.2,1.5,2.6,1.9,4.2c0.5,1.6,0.7,3.2,0.7,5c0,0.8,0,1.4-0.1,1.8c-0.1,0.4-0.2,0.8-0.4,1.2c-1.3-0.4-2.5-1-3.5-1.9
			S-16.8,28.1-17.5,27.1z"/>
		<path class="st2" d="M-5.3,17.5c0,0.3,0,0.6,0.1,1s0.1,0.9,0.2,1.6c0.1,0.7,0.3,1.5,0.5,2.5c0.2,1,0.4,2.1,0.7,3.5
			c0.1,0.3,0.2,0.8,0.4,1.4c0.2,0.7,0.5,1.4,0.8,2.1c0.3,0.7,0.8,1.4,1.3,2.1c0.5,0.7,1.1,1.2,1.8,1.5c0.5-0.1,1.2-0.4,2-0.9
			c0.8-0.5,1.6-1.2,2.2-2C4,29.5,3.5,28.8,3,28c-0.5-0.8-0.9-1.6-1.3-2.4c-0.4-0.8-0.7-1.7-1-2.6S0,21.1-0.4,20.1
			c-0.3-0.8-0.6-1.7-0.9-2.6s-0.4-1.7-0.5-2.3c0-0.5,0-0.9,0-1.1c0-0.2-0.1-0.3-0.2-0.3c-0.1,0-0.4,0.1-0.7,0.2
			c-0.4,0.2-0.7,0.4-1.1,0.7c-0.4,0.3-0.7,0.7-1,1.2C-5.1,16.3-5.3,16.9-5.3,17.5z M3.3,37.1c0,0.2,0,0.5,0.1,0.8
			c-0.2,0.1-0.3,0.4-0.4,0.7c-0.1,0.3-0.2,0.6-0.2,0.8c0,0.3,0,0.6,0.1,1.1c0.1,0.5,0.2,1,0.3,1.5c0.1,0.5,0.3,1.1,0.5,1.7
			c0.2,0.6,0.4,1.1,0.5,1.6c0.4,0,0.8-0.1,1.3-0.3s1.1-0.5,1.6-0.8c0.5-0.3,1-0.7,1.5-1c0.5-0.4,0.8-0.7,1-1.1
			c-0.3-0.3-0.8-0.8-1.3-1.4c-0.5-0.6-1.1-1.2-1.6-1.8c-0.5-0.6-1-1.3-1.4-1.8c-0.4-0.6-0.7-1-0.8-1.2c-0.4,0.1-0.7,0.2-0.9,0.5
			C3.5,36.6,3.3,36.8,3.3,37.1z"/>
		<path class="st2" d="M4.2,15.4c0.1,0.9,0.4,2,0.8,3.4c0.4,1.4,0.8,2.9,1.3,4.5c0.5,1.6,1,3.2,1.6,4.8c0.6,1.6,1.1,3.1,1.7,4.4
			c0.4,0.9,0.7,1.7,1,2.2c0.3,0.5,0.6,1,1,1.3c0.4-0.1,0.9-0.2,1.3-0.3c0.4-0.2,0.9-0.3,1.3-0.5c0.4-0.2,0.8-0.4,1.1-0.7
			c0.3-0.2,0.6-0.4,0.8-0.7c-0.8-1-1.5-2.1-2.1-3.3c-0.6-1.2-1.2-2.8-1.9-4.7c1.6,1.4,3.1,2.8,4.3,4.1c1.2,1.3,2.4,2.8,3.5,4.4
			c0.2,0.1,0.5,0.2,0.9,0.2c0.4,0,0.8-0.1,1.2-0.2c0.4-0.1,0.7-0.3,0.8-0.6c-0.5-1.4-0.8-2.9-0.8-4.3c0-1.3,0.2-2.3,0.6-3
			c0-0.2-0.2-0.5-0.6-1c-0.4-0.5-0.8-1-1.2-1.4c-0.8,0.4-1.5,1-2.2,1.7c-0.6,0.7-1.1,1.5-1.4,2.4c-1.4-1-2.6-2-3.6-2.9
			c-1-0.9-1.8-2-2.5-3.1c-0.7-1.2-1.3-2.5-1.8-4c-0.5-1.5-1-3.3-1.4-5.4c-0.3,0-0.6,0.1-1,0.3s-0.8,0.4-1.1,0.6
			c-0.4,0.2-0.7,0.5-1,0.8C4.5,14.9,4.3,15.2,4.2,15.4z"/>
	</g>
	<g class="st1">
		<path d="M43,33.3c1,0,1.7-0.3,2.3-0.8c0.6-0.5,0.8-1.3,0.8-2.2c0-0.2,0-0.5,0-0.7c0-0.3-0.1-0.5-0.2-0.7c-0.4,0.1-0.8,0.1-1.3,0.2
			c-0.5,0-1.1,0.1-1.7,0.1c-1.3,0-2.7-0.1-4.1-0.4c-1.3-0.2-2.6-0.4-3.9-0.6c-1.3-3.2-2.5-6.2-3.3-9c-0.9-2.8-1.5-5.5-2-8.3
			c-1,0.2-1.9,0.7-2.7,1.3c-0.8,0.6-1.5,1.5-2.2,2.7c0.2,0.5,0.5,1.1,0.8,1.7c0.3,0.7,0.7,1.5,1.1,2.6c0.4,1,0.9,2.3,1.5,3.8
			c0.6,1.5,1.3,3.3,2.1,5.3c-1.3,0.4-2.1,1.2-2.5,2.2c0.1,0.2,0.6,0.3,1.3,0.5s1.5,0.4,2.5,0.7c0.4,1.2,0.8,2.2,1.2,3.1
			c0.3,0.9,0.6,1.8,0.9,2.6c0.3,0.8,0.5,1.6,0.7,2.4c0.2,0.8,0.4,1.6,0.6,2.5h-0.2c-1.1,0-2.1,0.3-2.8,0.8c-0.7,0.5-1.1,1.3-1.1,2.1
			c0,0.2,0,0.5,0.1,0.9c0.1,0.3,0.2,0.6,0.3,0.9c0.6,0,1.1-0.1,1.7-0.1c0.6,0,1.3,0,2.2,0c1.9,0,3.7,0,5.3,0c1.6,0,3.1,0.1,4.5,0.2
			c1.3,0.1,2.5,0.3,3.4,0.4c1,0.1,1.7,0.2,2.2,0.2c0.7,0,1.3-0.4,1.8-1.1c0.5-0.7,1-1.7,1.3-3.1c-1,0.1-1.7,0.2-2.3,0.2
			s-1.1,0-1.6,0c-1.5,0-2.9-0.1-4.2-0.2c-1.3-0.1-2.5-0.3-3.6-0.5c-0.2-0.3-0.4-0.6-0.6-1c-0.2-0.4-0.5-1-0.9-1.8
			c-0.4-0.8-0.8-1.8-1.4-3s-1.3-2.8-2.1-4.7c1.2,0.2,2.3,0.3,3.4,0.5C41.4,33.2,42.3,33.3,43,33.3z"/>
		<path d="M63.5,32.7c0.3,0,0.7-0.1,1.1-0.2c0.4-0.1,0.8-0.2,1.1-0.4c0.3-0.2,0.6-0.3,0.8-0.5c0.2-0.2,0.3-0.3,0.3-0.5
			c-0.6-1.3-1.2-2.5-1.7-3.8c-0.5-1.3-0.9-2.5-1.3-3.7s-0.6-2.3-0.8-3.3s-0.3-1.9-0.3-2.7c0-0.8,0.1-1.5,0.3-2.1
			c0.2-0.6,0.5-1,0.9-1.2c-0.4-0.2-0.8-0.4-1.4-0.6s-1.1-0.2-1.5-0.2c-1.6,0-2.4,1.1-2.4,3.3c0,1.7,0.6,4.1,1.7,7
			c-0.6-1.4-1.3-2.7-2.1-3.9s-1.6-2.3-2.4-3.2c-0.8-0.9-1.6-1.7-2.5-2.3c-0.8-0.6-1.6-0.9-2.3-1.1c-1.1,0-2,0.5-2.7,1.5
			c-0.7,1-1,2.3-1,3.9c0,1.7,0.4,3.5,1.1,5.3c0.7,1.9,1.6,3.6,2.8,5.2c1.1,1.6,2.3,2.9,3.7,4c1.3,1.1,2.6,1.6,3.8,1.6
			c0.3-0.1,0.6-0.3,1-0.5c0.4-0.3,0.7-0.6,1.1-0.9c0.3-0.4,0.6-0.7,0.9-1.1c0.2-0.4,0.4-0.7,0.4-1c-1.2-0.2-2.4-0.8-3.7-1.8
			c-1.3-1-2.4-2.2-3.5-3.6s-1.9-2.9-2.5-4.5c-0.7-1.6-1-3.1-1-4.4c0-0.6,0.2-0.9,0.6-1.1c0.9,0.2,1.9,0.9,3,2.2s2.5,3.3,4.1,6.1
			c0.3,0.5,0.6,1.1,1,1.8c0.4,0.7,0.8,1.3,1.1,2.1c0.4,0.7,0.8,1.4,1.1,2.2C62.9,31.3,63.2,32,63.5,32.7z"/>
		<path d="M68.1,15.4c0.1,0.9,0.4,2,0.8,3.4c0.4,1.4,0.8,2.9,1.3,4.5c0.5,1.6,1,3.2,1.6,4.8c0.6,1.6,1.1,3.1,1.7,4.4
			c0.4,0.9,0.7,1.7,1,2.2c0.3,0.5,0.6,1,1,1.3c0.4-0.1,0.9-0.2,1.3-0.3c0.4-0.2,0.9-0.3,1.3-0.5c0.4-0.2,0.8-0.4,1.1-0.7
			c0.3-0.2,0.6-0.4,0.8-0.7c-0.8-1-1.5-2.1-2.1-3.3c-0.6-1.2-1.2-2.8-1.9-4.7c1.6,1.4,3.1,2.8,4.3,4.1c1.2,1.3,2.4,2.8,3.5,4.4
			c0.2,0.1,0.5,0.2,0.9,0.2c0.4,0,0.8-0.1,1.2-0.2c0.4-0.1,0.7-0.3,0.8-0.6c-0.5-1.4-0.8-2.9-0.8-4.3c0-1.3,0.2-2.3,0.6-3
			c0-0.2-0.2-0.5-0.6-1c-0.4-0.5-0.8-1-1.2-1.4c-0.8,0.4-1.5,1-2.2,1.7c-0.6,0.7-1.1,1.5-1.4,2.4c-1.4-1-2.6-2-3.6-2.9
			c-1-0.9-1.8-2-2.5-3.1c-0.7-1.2-1.3-2.5-1.8-4c-0.5-1.5-1-3.3-1.4-5.4c-0.3,0-0.6,0.1-1,0.3c-0.4,0.2-0.8,0.4-1.1,0.6
			c-0.4,0.2-0.7,0.5-1,0.8C68.4,14.9,68.2,15.2,68.1,15.4z"/>
		<path d="M103.4,33.2c-0.1-1.9-0.5-3.5-1-4.8c-0.5-1.3-1.3-2.5-2.3-3.5c-1-1-2.2-1.9-3.7-2.7c-1.4-0.8-3.1-1.6-5-2.3
			c0-0.2,0-0.4,0-0.6s0-0.4,0-0.6c0-0.4,0-0.8,0.1-1.2c0.1-0.4,0.2-0.8,0.3-1.2s0.4-0.7,0.6-0.9c0.3-0.2,0.6-0.3,1-0.3
			c0.8,0,1.6,0.2,2.4,0.5c0.8,0.4,1.5,0.8,2.2,1.3c0.7,0.5,1.4,1.1,2,1.7c0.6,0.6,1.2,1.2,1.6,1.7c0.3-0.3,0.6-0.5,0.8-0.8
			c-1.4-1.8-2.8-3.3-4.4-4.5s-3.1-1.9-4.6-2.3c-2.1,0.2-3.7,1-4.8,2.3c-1.2,1.3-1.7,2.8-1.7,4.6c0,1.2,0.2,2.5,0.5,3.8
			c0.3,1.3,0.8,2.5,1.4,3.7c0.6,1.2,1.3,2.3,2.2,3.4c0.8,1,1.7,2,2.7,2.7c0.9,0.8,1.9,1.4,2.9,1.8c1,0.5,2,0.7,3,0.7
			C100.9,35.5,102.2,34.7,103.4,33.2z M100.3,31.7c-0.8-0.1-1.7-0.4-2.5-1s-1.7-1.3-2.5-2.2c-0.8-0.9-1.5-2-2.1-3.2
			s-1.1-2.5-1.5-3.9c2.4,1.2,4.4,2.7,6,4.4C99.3,27.7,100.2,29.6,100.3,31.7z"/>
	</g>
	<rect x="-267" y="-53" class="st3" width="534" height="106"/>
</symbol>
<use xlink:href="#New_Symbol"  width="534" height="106.1" id="XMLID_1_" x="-267" y="-53.1" transform="matrix(0.9993 0 0 -0.9993 100 53.0501)" style="overflow:visible;"/>
</svg>
